<?xml version="1.0" encoding="UTF-8"?>
<svg id="Capa_1" xmlns="http://www.w3.org/2000/svg" version="1.1" viewBox="0 0 408.66 408.9">
  <!-- Generator: Adobe Illustrator 29.5.1, SVG Export Plug-In . SVG Version: 2.1.0 Build 141)  -->
  <path d="M216.44,0l29.7,4.22c10.75,3.37,9.32,16.37-2.95,15.73-9.2-.48-19.74-3.53-29.52-4.02-70.65-3.48-138.24,34.34-172.98,95.31-37.24,65.37-31.55,147.84,14.09,207.41l.8.52c31.34-14.86,59.41,26.31,33.55,49.72-26.25,23.76-63.93-9-46.27-39.21-20.59-27.2-34.26-58.65-40.13-92.37L.13,213.98c.3-7.14-.41-14.43,0-21.56C6.09,90,89.99,5.81,192.49,0h23.95ZM66.17,332.34c-17.89,2.9-14,30.74,4.52,28.49s15.21-31.69-4.52-28.49Z"/>
  <path d="M196.49,297.02c-25.78,4.15-49.82-5.24-66.23-25.17-13.2-16.04-18.03-40.23-12.41-60.27,2.53-9.04,7.03-7.32,14.42-9.54.9-.27,1.41.52,1.15-1.21-15.58-15.98-21.54-41.37-15.72-62.85,1.37-5.05,2.2-6.92,7.31-8.66,12.4-4.22,28.78-2.86,41.14.83-5.31-25.88,1.75-51.38,21.93-68.68,3.15-2.7,12.09-9.43,15.99-9.61,6.91-.33,21.92,13.89,26.26,19.28,13.27,16.46,16.63,38.58,12.44,59.02,9.37-3.72,38.12-5.5,45.45,1.24,4.98,4.58,5.29,25.11,4.73,31.79-1.16,13.7-8.04,27.78-17.45,37.64-.26,1.73.25.94,1.15,1.21,7.39,2.22,11.89.5,14.42,9.54,5.61,20.04.79,44.23-12.41,60.27-16.4,19.93-40.45,29.33-66.23,25.17v53.1c0,2.69-4.69,6.73-7.6,6.84s-8.36-3.02-8.36-6.05v-53.89ZM203.45,69.58c-1.82.5-9.36,8-10.93,9.89-19.82,23.76-14.81,61.85,12.22,77.69,26.67-16.46,31.63-54.36,11.31-78.12-2.13-2.49-9.62-10.27-12.6-9.45ZM132.74,143.83c-8.51,36.54,25.99,71.71,62.6,62.22,8.19-36.78-25.98-70.34-62.6-62.22ZM276.15,143.87c-36.58-8.29-70.73,25.44-62.56,62.18,36.53,9.51,71.16-25.68,62.56-62.18ZM132.74,218.09c-8.61,36.43,26.09,71.74,62.6,62.22,8.21-36.9-25.87-70.21-62.6-62.22ZM276.19,218.09c-36.82-8.19-70.55,25.44-62.6,62.22,36.51,9.52,71.21-25.78,62.6-62.22Z"/>
  <path d="M336.79,32.17c25.72-2.72,41.72,25.03,29.27,46.95,49.83,64.85,56.87,154.74,16.24,226.13-41.1,72.22-122.27,112.91-205.27,101.86-7.3-.97-16.37-1.5-14.82-11.42.53-3.43,3.21-4.79,6.15-5.9,77.48,14.22,156.14-20.25,196.88-87.24,40.29-66.25,36.24-152.03-11.89-212.92-21.14,10.21-45.62-6.73-43.5-30.13,1.26-13.95,13.05-25.85,26.95-27.32ZM337.55,48.1c-17.69,2.87-14.34,30.78,4.52,28.49,18.81-2.29,14.88-31.64-4.52-28.49Z"/>
  <path d="M275.3,14.58c9.24-2.4,14.58,9.09,6.99,14.17-10.53,7.05-17.64-11.41-6.99-14.17Z"/>
  <path d="M137.14,381.13c7.4,7.23-4.51,18.49-11.42,11.42-7.39-7.57,3.85-18.81,11.42-11.42Z"/>
</svg>