<?xml version="1.0" encoding="UTF-8"?>
<svg id="Capa_1" xmlns="http://www.w3.org/2000/svg" version="1.1" viewBox="0 0 408.66 408.9">
  <!-- Generator: Adobe Illustrator 29.5.1, SVG Export Plug-In . SVG Version: 2.1.0 Build 141)  -->
  <path d="M282,0c23.28,6.75,13.45,29.25,11.96,46.64-1.36,15.92.35,31.47-4.98,46.83-2.33,6.71-7.14,12.73-9.15,18.74s-2.43,13.08-3.95,19.16c-4.24,17-13.09,30.75-16.75,47.81-.92,4.27-4.29,21.19-3.97,24.37.4,4.03,6.39,17.15,7.82,23.11,1.93,8.01,3.12,16.21,3.89,24.41l8.07-26.58c6.71-15.56,20.51-26.74,36.96-30.67l2.81,12.09c-25.48,6.77-30.43,27.74-35.86,50.42l-11.98-2.86.8,13.55c7.22-7.15,18.66-16.38,29.14-17.5,1.68-.18.85.08,1.21,1.07,1.22,3.42,1.44,8.03,2.31,11.64-18.76,2.53-29.76,19.37-32.56,37.01l-3.24.5-.84,6.33c11.96-3.18,22.25-3.32,34.07.58,4.42,1.46,19.34,9.26,22.78,8.13l1.14-1.3,64.43-237.61c1.39-15.51,10.89-47.56-7.17-56.08-3.66-1.73-17.72-5.5-21.53-5.38-7.18.24-16.36,6.78-17.26,14.28l-12.74-3.19c2.28-9.43,9.85-17.9,18.92-21.32,15.99-6.03,43.76,1.9,52.13,17.6,8.79,16.48,1.01,53.69-3.39,71.82l-60.48,220.44,40.3-14.32c2.36-1.06,7.49,2.27,7.49,4.36v104.02h-12.75v-92.46c-14.04,3.5-28.63,12.91-43.41,12.82-18.11-.1-31.48-13.52-49.38-12.01-11.65.98-21.71,9.39-34.24,10.38-21.07,1.67-31.52-10.99-50.25-9.63-11.16.81-20.81,8.52-32.64,9.59-20.07,1.8-30.49-10.1-48.61-8.79-9.09.66-15.69,5.71-24.26,7.61-18.76,4.18-32.15-2.28-48.6-9.97v92.46h-12.75v-104.02c0-2.09,5.13-5.42,7.5-4.37,10.11,3.31,20.8,10.21,30.89,12.99,1.29.36,3.53,1.15,4.65.14L4.22,90.23C1.46,64.97-8.75,21.4,20.55,8.2c31.52-14.2,49.91,18.84,61.39,42.52,14.48,29.86,18.66,62.38,30.16,92.57.38,1.01.47,2.34,1.81,2.56l20.97-106.16C143.31-2.12,202.72.23,207.95,42.61l-9.58,124.77c6.82-1.15,12.96-2.47,19.91-.79,1.74-8.05,2.7-19.08,8.85-25.02,2.39-2.31,7.39-3.86,8.32-6.82,1.17-3.75.04-10.34.45-14.69.7-7.34,4.81-27.22,8.01-33.44,2.06-4.01,5.52-6.54,7.69-9.84,5.07-7.69,3.32-23.61,4.12-33.34.68-8.23,2.55-27.71,6.35-34.3,2.88-5,7.6-7.19,12.77-9.15h7.17ZM245.35,185.72c.42-17.87,10.46-32.47,15.71-48.45,3.19-9.72,3.77-20.7,6.82-29.84,1.66-4.98,5.8-10.08,7.89-15.22,6.21-15.28,4.11-29.57,5.44-45.57.77-9.28,2.68-18.56,3.71-27.8-.68-5.49-7.62-8.43-11.35-3.75-2.26,2.83-4.69,23.48-5.11,28.36-1.15,13.21,1.42,28.2-5.73,39.7-1.7,2.73-4.44,4.97-6.09,7.45-3.69,5.54-7.34,23.24-8.01,30.25-.82,8.58,1.62,15.28-4.08,23.02-2.52,3.42-7.95,5.72-9.45,8.08-1.13,1.77-4.69,15.22-4.85,17.54-.29,4.18,4.43,5.3,7.14,7.85,2.85,2.69,4.93,5.93,7.95,8.38ZM148.96,314.04L76.86,70.95c-4.55-11.87-20.2-43.6-30.54-49.94-14.27-8.76-31,.78-32.68,16.95-1.97,18.99,1.19,42.55,5.71,61.05l61.93,214.23c8.92-.56,16.2-6.61,25.28-7.75,16.87-2.12,27.16,3.77,42.41,8.56ZM184.62,176.76c2.88-38.3,7.32-76.66,9.75-114.99.84-13.26,3.32-25.99-8.83-34.99-13.69-10.15-33.19-2.98-37.59,13.26l-26.82,133.22,6.34,22.02c1.36-.66,1.49-2.57,2.76-4,10.13-11.36,30.1-8.11,39.08,3.19h1.16c3.3-6.53,8.22-13.47,14.16-17.71ZM171.28,310.06c12.93-5.87,26.66-7.62,40.44-3.41,6.58,2.01,12.74,6.48,19.78,7.31,3.39.4,13.43.38,16.23-1.12,1.93-1.03,4.03-12.54,4.54-15.38,4.85-26.9,3.27-56.72-6.32-82.44-17.17-46.03-51.58-49.93-70.51-2.4-11.95,30-12.48,66.5-4.16,97.45ZM140.21,198.48c.11,6.6,17.51,6.89,18.32,3.57-3.79-5.84-12.5-6.04-18.32-3.57ZM160.91,215.21c-9.79,3.85-20.34.99-28.66-4.78l20.71,71.73c1.5.16.64-1.67.56-2.55-2.03-21.78,1.04-43.62,7.39-64.4Z"/>
  <rect x="101.97" y="363.46" width="203.93" height="12.75"/>
  <rect x="140.2" y="388.97" width="114.71" height="12.75"/>
  <path d="M356.82,27.96l2.13,11.94c-25.24,5.76-30.71,27.99-35.56,50.15l-11.9-2.39c3.37-26.93,15.59-55.07,45.33-59.71Z"/>
  <path d="M308.29,145.86l-12-3.67c5.13-27.43,15.93-53.48,46.25-59.29l2.39,12.74c-26.14,4.05-31.17,28.48-36.64,50.22,2.63-1.81,16.01-7.76,18.62-7.24l2.57,12.06c-25.24,5.85-30.72,27.91-35.59,50.11l-11.82-2.39c-1.19-1.39,6.64-27.5,8.29-31.05,3.19-6.9,11.72-17.22,17.94-21.5Z"/>
  <rect x="267.66" y="388.97" width="63.73" height="12.75"/>
  <rect x="101.97" y="388.97" width="25.49" height="12.75"/>
  <rect x="76.48" y="363.46" width="12.75" height="12.75"/>
  <rect x="318.65" y="363.46" width="12.75" height="12.75"/>
  <path d="M31.08,79.71c6.51,1.78,12.15,9.18,19.4,5.48,3.47-1.78,7.1-9.69,8.5-13.42l11.83,5.93c-5.13,9.53-9.56,19.93-21.83,21.13-9.79.95-15.16-3.46-23.15-7.94l5.25-11.18Z"/>
  <path d="M95.59,162.61c-7.15,22.61-25.63,28.72-44.57,13.83l4.8-10.6c5.46.09,10.72,6.85,16.19,6.31,7.8-.76,11.18-14.93,12.81-15.05l10.77,5.51Z"/>
  <path d="M82.79,119.62c-2.14,8.21-8.73,18.65-17.3,21.23-10.85,3.28-18.47-1.8-27.21-7.43l6-10.62c5.18,1.34,9.5,6.75,15.05,6.37,8.61-.6,10.17-13.53,12.88-14.33l10.58,4.78Z"/>
  <path d="M108.34,205.66c-5.43,13.22-14.97,25.86-31.07,21.11-1.99-.59-14.25-6.87-14.26-7.96l6.01-9.9c5.42.58,9.92,6.56,15.46,5.96,7.85-.84,8.54-9.88,13.08-14.69l10.77,5.49Z"/>
  <path d="M81.27,251.08c14.71,9.13,21.4,9.42,27.94-7.93l11.02,6.01c-7.11,22.23-25.84,27.27-44.2,13.08l5.25-11.17Z"/>
  <polygon points="234.19 212.04 236.57 223.94 187.27 235.87 184.01 223.99 234.19 212.04"/>
  <path d="M236.6,255.05l-48.89,12.03-3.7-11.56,48.22-12.45c2.82.21,3.21,9.55,4.38,11.98Z"/>
  <path d="M236.6,286.14l-48.21,12c-2.91-.22-2.94-9.18-4.38-11.52l49.4-13.22,3.2,12.74Z"/>
  <path d="M163.94,50.45c12.72-1.02,32.27,8.2,25.17,23.59-4.82,10.46-21.74,10.32-30.87,6.35-18.86-8.21-13.98-28.35,5.7-29.94ZM159.33,64.57c.11,6.6,17.51,6.89,18.32,3.57-3.79-5.84-12.5-6.04-18.32-3.57Z"/>
  <path d="M157.57,95.09c12.72-1.02,32.27,8.2,25.17,23.59-4.82,10.46-21.74,10.32-30.87,6.35-18.86-8.21-13.98-28.35,5.7-29.94ZM152.95,109.21c.11,6.6,17.51,6.89,18.32,3.57-3.79-5.84-12.5-6.04-18.32-3.57Z"/>
  <path d="M151.19,139.72c12.72-1.02,32.27,8.2,25.17,23.59-4.82,10.46-21.74,10.32-30.87,6.35-18.86-8.21-13.98-28.35,5.7-29.94ZM146.58,153.84c.11,6.6,17.51,6.89,18.32,3.57-3.79-5.84-12.5-6.04-18.32-3.57Z"/>
</svg>