<?xml version="1.0" encoding="UTF-8"?>
<svg id="Capa_1" data-name="Capa 1" xmlns="http://www.w3.org/2000/svg" viewBox="0 0 383.23 209.69">
  <path d="M0,106.98c3.15-14.48,16.3-21.92,29.36-26.41,2.32-.8,8.02-1.31,9.35-2.26.82-.59,9.29-13.94,11.47-16.6C121.86-25.86,284.78-20.15,344.54,78.32c14.49,3.45,32.52,9.25,37.42,25.09,6.65,21.51-14.02,39.94-34.67,32.33-8.22,17.96-13.83,37.98-22.08,55.8-4.31,9.32-8.85,17.04-20.16,18.02-77.25-.69-154.78,1.26-231.86-.98-5.44-1.77-9.5-6.13-12.2-11.01l-25.03-61.83c-16.13,5.87-31.85-3.59-35.96-19.77v-8.98ZM326.36,77.78C264.88-6.18,118.38-6.1,56.89,77.78c5.69.81,11.29,1.84,16.66,3.93,9.84,3.82,17.9,13.59,28.76,9.69,12.68-4.55,17.99-12.27,34.3-13.6,25.01-2.05,28.37,4.46,48.27,13.09,11.41,4.95,16.36-2.82,25.69-7.25,17.01-8.06,39.43-8.19,56.42-.01,5.4,2.6,13.32,9.12,19.32,9.12s16.84-8.54,23.38-11.05c5.41-2.07,10.94-3.13,16.66-3.93ZM42.51,92.98c-10.37,1.12-34.2,9.85-25.93,23.99,7.23,12.38,18.8-.04,27.55-1.42,17.2-2.72,21.47,6.46,35.02,11.46,10.06,3.71,21.87,3.93,32.22,1.14,17.09-4.61,23.38-19.26,44.6-10.58,17.81,7.28,22.17,15.55,44.94,11.79,19.85-3.28,28.49-21.95,51.64-11.06,16.92,7.96,22.04,14.57,43.3,10.93,16.94-2.91,24.22-16.69,43.29-13.68,9.09,1.44,18.42,13.12,26.55,2.68,11.9-15.29-15.92-24.54-26.98-25.46-21.99-1.81-23.93,5.4-40.79,12.33-21.31,8.76-28.86-7.27-46.37-11.24-7.45-1.69-18.05-1.69-25.5,0-16.7,3.79-23.78,18.83-44.1,11.97-6.42-2.17-11.86-7.16-18.01-9.68-7.98-3.28-17.99-4.13-26.55-3.37-20.39,1.82-28.94,21.55-52.02,12.32-17.96-7.18-19.42-14.63-42.83-12.12ZM333.1,130.19c-2.21-1.98-14.95,6.78-17.69,8.12-16.82,8.24-37.36,9.06-54.67,1.74-8.11-3.43-15.2-11.04-24.5-9.8-4.96.66-11.47,6.14-16.25,8.45-18.35,8.86-40.07,8.37-58.2-.75-4.8-2.41-10.02-7.25-15.43-7.77-8.11-.78-11.94,3.92-18.33,7.13-18.6,9.33-39.54,10.7-58.67,1.75-1.2-.56-19.22-11.89-19.2-8.49,7.84,17.67,13.47,37.34,21.59,54.76,1.37,2.94,3.3,8.32,6.65,9.07l227.06-.18c2.74-.86,4.62-5.8,5.84-8.38,8.46-17.89,14.01-37.46,21.81-55.66Z"/>
  <path d="M190.7,31.52c3.02-.44,6.18,1.35,7.57,4.07,1.25,2.45,1.3,16.83.67,19.94-1.58,7.86-13.71,7.96-14.82-1.31-.37-3.07-.44-14.33.18-17.08.58-2.55,3.86-5.25,6.4-5.62Z"/>
  <path d="M151.77,33.76c5.88-1.04,10.99,5.01,8.24,10.54-.63,1.28-12.53,13.28-13.77,13.92-6.89,3.57-13.03-3.25-10.19-10.19.93-2.28,13.17-13.82,15.72-14.27Z"/>
  <path d="M228.88,33.77c2.56-.37,4.05.39,6.11,1.78,1.43.96,11.31,10.81,11.93,12.02,3.52,6.84-2.79,14.35-9.92,10.66-1.06-.55-12.84-12.28-13.5-13.44-2.48-4.32.48-10.32,5.37-11.02Z"/>
</svg>