<?xml version="1.0" encoding="UTF-8"?>
<svg id="Capa_1" data-name="Capa 1" xmlns="http://www.w3.org/2000/svg" viewBox="0 0 311.66 361.13">
  <path d="M167.89.02c8.83.05,17.71-.32,26.48.84,42.49,5.6,72.88,44.93,69.43,87.39,39.49,8.29,58.34,54.76,41.95,90.43-3.51,7.65-8.96,13.71-14.75,19.68l-29.01,131.93c-4.54,17.2-20.69,29.18-38.3,29.82-42.01-2.59-87.97,3.35-129.52-.05-16.99-1.39-32.01-12.67-36.69-29.18l-28.42-128.77c-.98-2.46-7.92-6.05-10.48-8.23-9.07-7.73-16.81-21.59-18.15-33.49-4.46-39.56,26.98-67.84,64.03-72.17,4.34-28.25,28.92-46.61,56.66-48.51,10.72-.74,18.37,1.55,28.83-3.36,8.06-3.78,17.95-14.69,17.95-23.97V.02ZM79.56,93.21c-.36,3.44.26,7.36,0,10.85-22.29-1.1-46.24,7.13-57.77,27.19-14.16,24.65-.89,54.77,26.89,60.19l219.07.13c28.53-7.39,33.4-43.05,20.5-66.03-8.69-15.48-23.25-22.82-41.03-21.48-.4-11.74.97-23.73-.97-35.34-5.01-30.08-32.57-53.65-63.4-52.24-1.84,17.19-16.35,32.38-32.61,37.38-11.42,3.51-22.64,1.36-34.18,3.25-18.45,3.02-34.48,16.84-36.51,36.1ZM272.68,206.62l-10.07,1.53c-69.06-1.81-139.24,2.28-208.16,0-2.46-.08-4.63-.92-7.07-.78l25.06,116.03c2.46,12.98,12.03,19.28,24.68,20.23,40.85-2.19,84.55,2.81,125.07,0,11.88-.82,20.16-5.57,23.93-17.24l26.57-119.77Z"/>
  <rect x="151.42" y="232.06" width="15.72" height="87.58"/>
  <path d="M233.01,235.06l-19.47,83.84-15.72-3.75,19.84-83.1c.64-1.02,1.05-.3,1.69-.23,4.26.44,9.21,2.98,13.65,3.26Z"/>
  <polygon points="121.48 315.14 105.76 318.9 86.29 235.06 100.31 232.19 101.64 232.8 121.48 315.14"/>
</svg>