<?xml version="1.0" encoding="UTF-8"?>
<svg id="Capa_1" data-name="Capa 1" xmlns="http://www.w3.org/2000/svg" viewBox="0 0 263.61 359.41">
  <path d="M145.15,96.77c69.16,6.61,122.04,68.61,118.26,138.1-6.36,117.1-153.05,168.32-230.93,79.74C-26.29,247.75-2.12,141.7,79.28,107.24c.35-1.94-.28-1.15-1.06-1.55-4.3-2.19-8.97-3.79-13.1-6.36-26.49-16.44-34.91-48.14-33.03-77.82.88-13.8,2.96-18.34,16.98-20.45,32.79-4.91,67.56,7.15,84.23,36.82,2.79,4.97,4.42,10.39,6.98,15.46,13.58-16.44,36.2-27.99,57.64-29.17,10.05-.55,19.79,2.94,17.25,15.01-2.24,10.64-14.16,8.5-22.26,9.92-23.63,4.16-44.13,23.71-47.77,47.67ZM119.7,87.79v-13.85c0-2.97-2.06-11.01-3.04-14.18-8.48-27.26-33.69-37.35-60.59-35.6v16.09c0,23.6,23.94,47.53,47.53,47.53h16.09ZM123.29,120.2C41.16,126.27-3.95,220.26,42.74,288.63c44,64.43,139.97,61.83,180.86-4.5,46.21-74.96-13.04-170.39-100.31-163.94Z"/>
  <path d="M165.17,239.92c16.84-2.73,19.31,21.26,4.88,23.59-16.84,2.73-19.31-21.26-4.88-23.59Z"/>
  <path d="M201.1,239.92c16.84-2.73,19.31,21.26,4.88,23.59-16.84,2.73-19.31-21.26-4.88-23.59Z"/>
  <path d="M177.15,275.85c16.84-2.73,19.31,21.26,4.88,23.59-16.84,2.73-19.31-21.26-4.88-23.59Z"/>
</svg>