<?xml version="1.0" encoding="UTF-8"?>
<svg id="Capa_1" data-name="Capa 1" xmlns="http://www.w3.org/2000/svg" viewBox="0 0 245.44 352.59">
  <path d="M43.91,0l158.72.4c2.13,1.12,2.93,2.73,3.2,5.03,1.17,9.95-1.19,21.71.33,31.85l39.28,65.51-.52,247.16-2.62,2.62H3.14l-2.62-2.62L0,102.8,39.06,37.82c2.15-10.18-.94-23.08.62-33.07.37-2.37,1.95-4.1,4.23-4.75ZM193.83,11.82H51.61v20.96h142.22V11.82ZM229.01,97.9l-32.56-53.15H56.1l32.56,53.15h140.35ZM74.07,97.9l-28.82-47.14-28.82,47.14h57.64ZM78.56,109.88H11.94v193.87h66.62V109.88ZM233.5,109.88H90.53v193.87h142.97V109.88ZM78.56,315.72H11.94v25.45h66.62v-25.45ZM233.5,315.72H90.53v25.45h142.97v-25.45Z"/>
  <path d="M162.19,157.18c2.32-.51,4.58-.09,6.19,1.73,10.77,16.6,24.45,32.2,35.05,48.79,31.76,49.71-40.47,97.76-76.95,52.24-30.04-37.48,14.99-70.27,32.6-100.6.73-1.05,1.85-1.88,3.11-2.16ZM164.62,173.51l-1.55.46-30.49,42.71c-16.2,32.07,21.21,62.54,51,43.51,13.29-8.49,19.95-26.99,12.63-41.54-5.81-11.54-21.88-31.36-30.26-42.36-.63-.83-1.18-1.73-1.33-2.78Z"/>
</svg>